<?xml version="1.0" encoding="UTF-8" standalone="no"?>
<!-- Created with Inkscape (http://www.inkscape.org/) -->

<svg
   width="64"
   height="64"
   viewBox="0 0 64 64"
   version="1.1"
   id="svg5"
   xmlns="http://www.w3.org/2000/svg"
   xmlns:svg="http://www.w3.org/2000/svg">
  <defs
     id="defs2">
    <rect
       x="-80"
       y="-340"
       width="840"
       height="400"
       id="rect7634" />
  </defs>
  <path
     style="fill:#aa0000;fill-opacity:1;stroke:none;stroke-width:7.71429px;stroke-linecap:butt;stroke-linejoin:miter;stroke-opacity:1"
     d="M 5,20.428571 20.428571,5 H 43.571429 L 59,20.428571 V 43.571429 L 43.571429,59 H 20.428571 L 5,43.571429 Z"
     id="path858" />
  <g
     aria-label="STOP"
     id="text7632"
     style="font-size:40px;line-height:1.15;letter-spacing:-4px;word-spacing:0px;white-space:pre;shape-inside:url(#rect7634);fill:#ffffff;fill-opacity:1;stroke:none"
     transform="matrix(0.54640475,0,0,0.54640475,52.422945,207.48877)">
    <path
       d="m -60.234375,-334.77344 v 4.00391 q -1.796875,-1.15235 -3.613281,-1.73828 -1.796875,-0.58594 -3.632813,-0.58594 -2.792968,0 -4.414062,1.30859 -1.621094,1.28907 -1.621094,3.4961 0,1.93359 1.054688,2.94922 1.074218,1.01562 3.984375,1.69921 l 2.070312,0.46875 q 4.101563,0.95704 5.976563,3.00782 1.875,2.05078 1.875,5.58593 0,4.16016 -2.578125,6.34766 -2.578125,2.1875 -7.5,2.1875 -2.050782,0 -4.121094,-0.44922 -2.070313,-0.42969 -4.160156,-1.30859 V -312 q 2.246093,1.42578 4.238281,2.08984 2.011719,0.66407 4.042969,0.66407 2.988281,0 4.648437,-1.32813 1.660156,-1.34766 1.660156,-3.75 0,-2.1875 -1.152343,-3.33984 -1.132813,-1.15235 -3.964844,-1.77735 l -2.109375,-0.48828 q -4.0625,-0.91797 -5.898438,-2.77344 -1.835937,-1.85546 -1.835937,-4.98046 0,-3.90625 2.617187,-6.25 2.636719,-2.36329 6.992188,-2.36329 1.679687,0 3.535156,0.39063 1.855469,0.37109 3.90625,1.13281 z"
       style="font-family:'DejaVu Sans Mono';-inkscape-font-specification:'DejaVu Sans Mono';fill:#ffffff;fill-opacity:1;stroke:none"
       id="path17112" />
    <path
       d="m -59,-335.76953 h 22.246094 v 3.32031 H -45.875 v 25.83984 h -3.964844 v -25.83984 H -59 Z"
       style="font-family:'DejaVu Sans Mono';-inkscape-font-specification:'DejaVu Sans Mono';fill:#ffffff;fill-opacity:1;stroke:none"
       id="path17114" />
    <path
       d="m -22.160156,-321.16016 q 0,-6.42578 -1.328125,-9.17968 -1.308594,-2.75391 -4.316406,-2.75391 -2.988282,0 -4.316407,2.75391 -1.308593,2.7539 -1.308593,9.17968 0,6.40625 1.308593,9.16016 1.328125,2.75391 4.316407,2.75391 3.007812,0 4.316406,-2.73438 1.328125,-2.75391 1.328125,-9.17969 z m 4.121094,0 q 0,7.61719 -2.421875,11.36719 -2.402344,3.75 -7.34375,3.75 -4.941407,0 -7.34375,-3.73047 -2.402344,-3.73047 -2.402344,-11.38672 0,-7.63672 2.402344,-11.38672 2.421875,-3.75 7.34375,-3.75 4.941406,0 7.34375,3.75 2.421875,3.75 2.421875,11.38672 z"
       style="font-family:'DejaVu Sans Mono';-inkscape-font-specification:'DejaVu Sans Mono';fill:#ffffff;fill-opacity:1;stroke:none"
       id="path17116" />
    <path
       d="m -11.960938,-332.52734 v 10.95703 h 4.570313 q 2.734375,0 4.2578125,-1.44532 1.5429688,-1.44531 1.5429688,-4.04296 0,-2.59766 -1.5234376,-4.02344 -1.5234374,-1.44531 -4.2773437,-1.44531 z m -3.945312,-3.24219 h 8.515625 q 4.8828125,0 7.40234375,2.22656 2.51953125,2.20703 2.51953125,6.48438 0,4.3164 -2.51953125,6.52343 -2.50000005,2.20703 -7.40234375,2.20703 h -4.570313 v 11.71875 h -3.945312 z"
       style="font-family:'DejaVu Sans Mono';-inkscape-font-specification:'DejaVu Sans Mono';fill:#ffffff;fill-opacity:1;stroke:none"
       id="path17118" />
  </g>
</svg>
